<?xml version="1.0" standalone="no"?>
<!DOCTYPE svg PUBLIC "-//W3C//DTD SVG 20010904//EN"
 "http://www.w3.org/TR/2001/REC-SVG-20010904/DTD/svg10.dtd">
<svg version="1.0" xmlns="http://www.w3.org/2000/svg"
 width="788.000000pt" height="317.000000pt" viewBox="0 0 788.000000 317.000000"
 preserveAspectRatio="xMidYMid meet">

<g transform="translate(0.000000,317.000000) scale(0.100000,-0.100000)"
fill="#000000" stroke="none">
<path d="M3728 3003 c-75 -77 -149 -164 -186 -220 -34 -50 -65 -94 -70 -96 -4
-3 -34 10 -65 30 l-58 35 -73 -78 c-40 -44 -89 -98 -110 -121 -29 -33 -52 -47
-105 -63 -58 -19 -91 -40 -217 -141 -82 -65 -152 -119 -156 -119 -4 0 -89 41
-189 90 -99 50 -187 90 -194 90 -17 0 -228 -151 -752 -537 l-421 -311 -179
-42 c-98 -23 -241 -57 -318 -75 -77 -18 -187 -50 -245 -70 -58 -20 -151 -53
-208 -72 -57 -19 -101 -37 -99 -40 3 -2 126 7 273 21 148 14 335 32 417 39
l147 13 158 -34 157 -34 170 21 c94 12 222 33 286 47 l116 27 107 -42 107 -41
122 11 c139 13 192 10 477 -30 188 -26 208 -27 243 -14 31 13 62 14 177 7 77
-5 140 -8 140 -7 0 2 -62 32 -137 69 -102 48 -167 72 -247 90 -60 14 -113 27
-118 30 -7 4 -59 77 -179 249 -20 28 -43 96 -79 230 -28 105 -53 198 -56 208
-3 10 -15 17 -29 17 -13 0 -26 3 -28 8 -5 9 9 221 15 227 3 3 91 -38 197 -90
189 -94 193 -96 314 -208 67 -62 168 -153 224 -203 l101 -89 179 -43 c163 -40
188 -49 295 -109 80 -44 168 -81 275 -117 87 -29 195 -72 240 -95 l83 -41 172
-10 c95 -5 219 -18 276 -28 56 -10 102 -17 102 -15 0 8 -156 72 -328 135
l-193 71 -157 145 c-121 111 -181 175 -260 281 -104 136 -104 136 -145 136
l-42 1 -50 94 c-27 52 -79 163 -116 245 -59 134 -70 152 -103 170 -34 19 -36
23 -36 68 l0 49 78 -42 c217 -119 216 -118 224 -190 3 -22 13 -27 113 -55 123
-34 102 -18 283 -221 l82 -91 194 -100 c107 -54 193 -96 190 -92 -2 4 -60 48
-128 99 l-124 93 -83 183 c-76 170 -84 184 -108 184 -23 0 -30 10 -60 78 -19
42 -63 131 -98 198 -39 75 -63 133 -63 153 0 17 -7 42 -15 55 -13 20 -14 31
-4 70 6 25 16 46 23 46 6 -1 36 -37 66 -82 50 -73 60 -82 111 -102 47 -17 88
-50 231 -181 l173 -160 150 -69 150 -68 75 -89 c69 -82 106 -111 449 -360 206
-148 390 -277 410 -284 20 -8 164 -59 320 -115 l284 -100 156 1 156 1 -105 27
c-58 15 -148 45 -200 67 l-94 39 -76 105 c-71 98 -79 105 -116 110 l-39 5
-112 269 c-62 148 -115 271 -118 274 -3 4 -27 9 -53 12 l-47 5 2 110 c2 61 5
116 8 124 4 10 42 -21 123 -101 76 -75 162 -146 247 -205 72 -50 336 -246 588
-436 513 -387 525 -395 706 -416 52 -6 96 -9 98 -7 2 2 -49 17 -113 34 -109
29 -122 35 -203 97 -138 106 -438 373 -462 411 -17 28 -27 34 -48 32 -24 -3
-31 6 -88 118 l-62 120 16 52 c9 29 20 52 24 52 4 0 74 -71 155 -157 82 -87
153 -161 159 -165 6 -4 116 -43 245 -87 129 -44 244 -83 255 -87 11 -4 17 -4
13 0 -3 4 -118 49 -254 99 l-248 92 -154 165 c-85 91 -158 166 -162 168 -4 1
-77 -31 -163 -73 -86 -41 -160 -75 -165 -75 -5 0 -65 39 -133 86 -80 56 -167
129 -247 208 l-124 121 -77 -84 -78 -83 -92 -12 -93 -11 -84 -70 c-77 -64 -95
-73 -197 -106 l-112 -36 -31 29 c-17 16 -53 56 -80 88 -46 56 -56 63 -193 122
l-144 63 -176 162 c-145 134 -186 167 -234 185 -55 22 -62 29 -120 115 -34 51
-64 92 -67 93 -4 0 -62 -57 -132 -127z"/>
<path d="M7340 1860 c8 -5 20 -10 25 -10 6 0 3 5 -5 10 -8 5 -19 10 -25 10 -5
0 -3 -5 5 -10z"/>
<path d="M5603 1306 c72 -16 87 -28 63 -55 -40 -44 -2 -78 157 -141 59 -24
107 -46 107 -50 0 -9 -43 -15 -218 -31 -114 -11 -135 -10 -143 2 -7 11 -9 11
-9 -3 0 -13 -8 -18 -30 -18 -27 0 -30 3 -30 31 0 27 -2 30 -15 19 -13 -10 -15
-9 -15 11 0 13 -5 31 -10 39 -7 11 -10 5 -10 -22 0 -27 -4 -38 -15 -38 -8 0
-15 -5 -15 -11 0 -7 -11 0 -25 15 -25 27 -25 27 -25 4 0 -13 -5 -30 -10 -38
-8 -13 -10 -13 -10 1 0 22 -31 34 -42 17 -5 -8 -8 0 -9 22 l-1 35 -9 -30 c-5
-20 -15 -31 -29 -32 -11 -1 -20 4 -20 10 0 7 -4 6 -10 -3 -8 -12 -10 -10 -11
10 0 22 -1 22 -8 6 -10 -25 -48 -31 -54 -8 -3 12 -5 9 -7 -8 -1 -23 -3 -22
-15 10 l-13 35 -2 -30 c-2 -38 -9 -77 -15 -83 -3 -3 -8 4 -12 14 -8 19 -33 31
-33 17 0 -5 -4 -15 -10 -23 -7 -12 -13 -9 -35 14 l-25 28 -11 -31 c-13 -38
-29 -31 -30 12 -1 31 -1 31 -9 7 -4 -14 -9 -20 -10 -15 -1 6 -4 23 -6 40 -8
43 -14 44 -14 1 0 -23 -5 -39 -15 -42 -8 -4 -15 -13 -15 -21 0 -8 -4 -11 -10
-8 -5 3 -10 16 -10 28 0 18 -2 19 -10 7 -8 -12 -10 -10 -11 10 -1 17 -5 10
-12 -20 -6 -26 -12 -37 -14 -27 -3 9 -11 17 -19 17 -8 0 -14 8 -15 18 0 14 -2
14 -9 -3 -8 -19 -9 -19 -9 2 -1 34 -21 38 -21 4 0 -24 -4 -29 -20 -28 -11 1
-20 5 -20 10 0 4 -4 5 -10 2 -5 -3 -10 -1 -10 4 0 6 -4 11 -10 11 -5 0 -10 -7
-10 -15 0 -9 -6 -12 -15 -9 -10 4 -15 0 -16 -12 -1 -14 -3 -13 -9 6 -4 14 -8
19 -9 13 -2 -28 -21 -11 -22 20 -1 26 -3 21 -12 -22 -13 -60 0 -53 -137 -69
l-65 -8 120 -23 c125 -25 171 -38 163 -46 -5 -5 -298 -35 -340 -35 -13 0 -18
8 -18 31 0 17 -4 28 -10 24 -5 -3 -7 -12 -3 -20 3 -8 0 -15 -7 -15 -6 0 -9 -4
-6 -9 7 -11 -22 -23 -35 -15 -5 3 -9 20 -9 37 0 18 -5 39 -10 47 -7 11 -10 6
-11 -22 -2 -57 -3 -61 -15 -65 -7 -2 -14 23 -18 69 -10 106 -20 109 -31 8 -4
-36 -12 -71 -17 -77 -18 -22 -35 -14 -43 20 -6 30 -7 31 -15 10 -14 -36 -28
-27 -36 22 -8 53 -23 69 -25 26 -1 -17 -3 -35 -4 -41 -1 -5 -3 -17 -4 -26 0
-9 -7 -14 -13 -11 -8 2 -13 22 -14 48 -1 71 -16 153 -24 138 -7 -13 -22 -117
-24 -164 -1 -13 -9 -21 -22 -23 -13 -2 -22 2 -21 10 0 7 -1 27 -2 43 -1 22 -4
26 -10 15 -6 -8 -7 -18 -4 -22 2 -5 -1 -15 -7 -23 -6 -8 -9 -23 -5 -34 7 -23
23 -21 -327 -56 -288 -29 -265 -28 -251 -14 9 9 8 15 -2 25 -7 8 -11 23 -7 36
5 20 3 21 -10 10 -9 -7 -14 -21 -11 -31 5 -20 -42 -64 -61 -58 -6 2 -11 24
-12 48 -1 71 -16 153 -24 138 -4 -8 -11 -42 -15 -76 -5 -44 -11 -63 -21 -63
-8 0 -14 3 -15 8 0 4 -2 30 -3 57 -4 82 -18 175 -26 175 -10 0 -17 -34 -25
-115 -3 -32 -11 -63 -18 -67 -9 -6 -9 -8 1 -8 19 0 14 -34 -8 -53 -11 -9 -25
-17 -30 -17 -14 0 -12 17 3 24 10 5 10 7 0 12 -7 3 -14 22 -14 42 -1 21 -3 29
-6 20 -2 -10 -9 -18 -14 -18 -6 0 -7 -6 -1 -17 7 -12 4 -21 -12 -34 -11 -10
-15 -18 -8 -19 19 0 14 -20 -5 -21 -12 -1 -9 -4 7 -8 l25 -7 -32 -17 c-31 -16
-63 -14 -63 4 0 5 10 9 23 10 21 0 21 1 -3 10 -23 10 -24 11 -7 24 12 9 14 14
6 17 -11 4 -14 17 -19 73 -1 15 -3 16 -7 5 -3 -8 -11 -18 -17 -22 -8 -5 -7
-11 2 -20 16 -16 15 -38 -2 -38 -7 0 -19 -6 -25 -14 -10 -12 -8 -15 11 -18
l23 -5 -25 -11 c-24 -10 -24 -11 -2 -11 30 -1 28 -19 -3 -27 -26 -7 -59 11
-49 27 3 5 2 15 -3 22 -4 6 -9 35 -10 62 -4 77 -14 149 -23 159 -10 10 -21
-52 -29 -157 -1 -5 -9 -7 -18 -5 -15 3 -18 16 -21 68 -1 36 -4 74 -5 85 -2 11
-7 44 -11 73 -14 92 -32 56 -41 -83 -3 -37 -8 -72 -12 -78 -4 -7 -6 -24 -4
-39 3 -28 -21 -48 -56 -48 -17 1 -17 1 0 14 10 8 13 16 8 17 -6 2 -13 21 -15
43 -6 40 -16 62 -16 33 0 -8 -6 -18 -12 -21 -10 -5 -10 -7 0 -12 16 -8 15 -44
-2 -44 -7 0 -19 -7 -26 -15 -10 -13 -9 -15 11 -15 l24 -1 -25 -14 -25 -14 30
-1 c28 -1 29 -1 11 -15 -11 -8 -17 -18 -13 -21 4 -4 2 -14 -5 -21 -9 -11 -9
-16 2 -23 18 -11 -38 -25 -160 -40 -115 -14 -361 -57 -412 -72 -21 -6 -38 -15
-38 -19 0 -13 12 -15 655 -84 182 -20 429 -47 550 -60 121 -14 267 -29 325
-35 140 -15 150 -18 150 -44 0 -28 -52 -77 -164 -157 -50 -34 -85 -64 -79 -66
6 -2 121 18 255 46 329 68 832 168 891 176 26 4 46 12 44 18 -8 25 -135 54
-571 127 -379 63 -416 76 -346 119 91 55 795 131 1805 196 542 35 1001 66
1015 68 22 5 12 6 -1005 87 -137 11 -270 23 -295 27 l-45 6 40 8 c41 7 259 22
865 59 184 12 341 23 348 25 23 8 12 34 -20 44 -18 6 -143 38 -277 71 -302 75
-340 92 -291 132 31 25 19 35 -60 47 -92 15 -141 13 -67 -3z m-2893 -582 c0
-9 -5 -14 -12 -12 -18 6 -21 28 -4 28 9 0 16 -7 16 -16z m420 -9 c0 -8 -4 -15
-9 -15 -13 0 -22 16 -14 24 11 11 23 6 23 -9z m-530 0 c0 -2 -8 -9 -19 -14
-13 -7 -24 -6 -37 4 -18 13 -16 14 19 15 20 0 37 -2 37 -5z m435 -16 c4 -6 5
-12 4 -14 -7 -7 -59 8 -59 16 0 13 47 11 55 -2z m-425 -4 c0 -2 -14 -12 -31
-21 -23 -11 -34 -13 -42 -5 -8 8 -4 11 15 11 15 0 30 5 33 10 6 10 25 14 25 5z
m-12 -62 c-14 -17 -38 -16 -62 2 -17 13 -15 14 27 12 35 -2 43 -5 35 -14z"/>
<path d="M2445 659 c-11 -17 1 -21 15 -4 8 9 8 15 2 15 -6 0 -14 -5 -17 -11z"/>
</g>
</svg>
